<?xml version="1.0" encoding="UTF-8"?>
<svg width="311px" height="63px" viewBox="0 0 311 63" version="1.1" xmlns="http://www.w3.org/2000/svg" xmlns:xlink="http://www.w3.org/1999/xlink">
    <!-- Generator: Sketch 52.5 (67469) - http://www.bohemiancoding.com/sketch -->
    <title>Combined Shape</title>
    <desc>Created with Sketch.</desc>
    <defs>
        <linearGradient x1="0%" y1="1.66533454e-14%" x2="100%" y2="77.2521161%" id="linearGradient-1">
            <stop stop-color="#4592EE" offset="0%"></stop>
            <stop stop-color="#5AA6F8" offset="100%"></stop>
        </linearGradient>
    </defs>
    <g id="Appicon" stroke="none" stroke-width="1" fill="none" fill-rule="evenodd">
        <path d="M170.5,10.6 L170.5,1.4 L199.2,1.4 L199.2,10.6 L190.6,10.6 L190.6,36.6 L179,36.6 L179,10.6 L170.5,10.6 Z M299.6,1.3 L310.7,1.3 L310.7,36.5 L301.3,36.5 L291.7,23 L291.7,36.5 L280.6,36.5 L280.6,1.3 L289.9,1.3 L299.6,14.9 L299.6,1.3 Z M265.8,1.9 C270.2,3.8 273.8,7.3 275.7,11.7 C277.6,16.3 277.6,21.5 275.7,26.1 C273.8,30.5 270.3,34.1 265.8,36 C261.2,37.9 256,37.9 251.4,36 C247,34.1 243.4,30.6 241.5,26.1 C241.1,25.1 240.8,24.2 240.6,23.2 L237,23.2 C236.8,24.2 236.5,25.2 236.1,26.1 C234.2,30.5 230.7,34.1 226.2,36 C221.6,37.9 216.4,37.9 211.8,36 C207.4,34.1 203.8,30.6 201.9,26.1 C199.9,21.5 199.9,16.3 201.9,11.7 C203.8,7.3 207.3,3.7 211.8,1.9 C216.4,4.56301663e-14 221.6,4.56301663e-14 226.2,1.9 C230.6,3.8 234.2,7.3 236.1,11.7 C236.5,12.7 236.8,13.7 237,14.7 L240.6,14.7 C240.8,13.7 241.1,12.7 241.5,11.7 C243.4,7.3 246.9,3.7 251.4,1.9 C256,4.39093206e-14 261.2,4.39093206e-14 265.8,1.9 Z M225.7,21.8 C226.5,20 226.5,17.9 225.7,16 C224.9,14.2 223.5,12.8 221.8,12.1 C220,11.3 217.9,11.3 216,12.1 C214.2,12.9 212.8,14.3 212.1,16 C211.3,17.9 211.3,20 212.1,21.8 C212.9,23.6 214.3,25 216,25.7 C217.8,26.5 219.9,26.5 221.8,25.7 C223.6,24.9 225,23.5 225.7,21.8 Z M265.3,21.8 C266.1,20 266.1,17.9 265.3,16 C264.5,14.2 263.1,12.8 261.4,12.1 C259.6,11.3 257.5,11.3 255.6,12.1 C253.8,12.9 252.4,14.3 251.7,16 C251,17.9 251,20 251.7,21.8 C252.5,23.6 253.9,25 255.6,25.7 C257.4,26.5 259.5,26.5 261.4,25.7 C263.2,24.9 264.6,23.5 265.3,21.8 Z M250.4,48.7 L254.3,45.8 L260,53.6 L256.1,56.5 C255.6,56.8 251.4,59.9 244.8,61.5 C242.2,62.2 239.5,62.5 236.9,62.5 C230.7,62.5 224.6,60.7 219,57.2 L214.9,54.6 L220,46.4 L224.1,49 C237.9,57.7 250.3,48.8 250.4,48.7 Z M20.8,14.7 L20.8,0.5 L32.4,0.5 L32.4,37.4 L22.6,37.4 L12.5,23.2 L12.5,37.4 L0.9,37.4 L0.9,0.5 L10.6,0.5 L20.8,14.7 Z M88.4,16.5 L94.7,0.5 L107.6,0.5 L93.2,37.4 L83.6,37.4 L69.2,0.5 L82.1,0.5 L88.4,16.5 Z M108.5,37.4 L108.5,0.5 L135.8,0.5 L135.8,10.2 L120.3,10.2 L120.3,15.3 L135.1,15.3 L135.1,22.6 L120.3,22.6 L120.3,27.7 L135.7,27.7 L135.7,37.4 L108.5,37.4 Z M151,0.5 L151,28 L166.3,28 L166.3,37.4 L138.8,37.4 L138.8,0.5 L151,0.5 Z M61,2.7 C65.4,4.6 69,8.1 70.9,12.5 C72.8,17.1 72.8,22.3 70.9,26.9 C69,31.3 65.5,34.9 61,36.8 C56.4,38.7 51.2,38.7 46.6,36.8 C42.2,34.9 38.6,31.4 36.7,26.9 C34.7,22.3 34.7,17.1 36.7,12.5 C38.6,8.1 42.1,4.5 46.6,2.7 C51.2,0.8 56.4,0.8 61,2.7 Z M60.5,22.6 C61.3,20.8 61.3,18.7 60.5,16.8 C59.7,15 58.3,13.6 56.6,12.9 C54.8,12.1 52.7,12.1 50.8,12.9 C49,13.7 47.6,15.1 46.9,16.8 C46.1,18.7 46.1,20.8 46.9,22.6 C47.7,24.4 49.1,25.8 50.8,26.5 C52.6,27.3 54.7,27.3 56.6,26.5 C58.4,25.7 59.8,24.3 60.5,22.6 Z" id="Combined-Shape" fill="url(#linearGradient-1)"></path>
    </g>
</svg>